<svg width="48" height="48" viewBox="0 0 48 48" fill="none" xmlns="http://www.w3.org/2000/svg">
<rect width="48" height="48" fill="white"/>
<path d="M27.5349 17.6095C27.5349 18.4642 27.4757 19.1848 27.3605 19.7722C27.2452 20.3597 27.0677 20.8289 26.8297 21.1813C26.5903 21.5336 26.29 21.7895 25.9265 21.949C25.5648 22.1084 25.1279 22.1872 24.6176 22.1872H21.2568C20.318 22.1872 19.6302 21.848 19.1937 21.1686C18.7573 20.4901 18.5402 19.303 18.5402 17.6095V14.8684C18.5402 14.112 18.5891 13.4851 18.6861 12.9815C18.7866 12.4792 18.9468 12.0765 19.1679 11.774C19.3891 11.4714 19.6698 11.259 20.0079 11.1331C20.3465 11.0076 20.7612 10.9447 21.255 10.9447H24.6154C25.1582 10.9447 25.616 11.0031 25.9875 11.1204C26.3577 11.2382 26.6553 11.4474 26.8911 11.7495C27.1193 12.0521 27.2862 12.4534 27.3863 12.9561C27.4833 13.4598 27.5331 14.097 27.5331 14.8684V17.6095H27.5349ZM36.8126 13.1699C36.4264 12.1227 35.8725 11.2164 35.1562 10.4541C34.4394 9.69096 33.5834 9.09128 32.5868 8.65557C31.5898 8.2194 30.4748 8.00064 29.2375 8.00064H17.1311C15.9099 8.00064 14.7998 8.21442 13.7939 8.64153C12.7902 9.07 11.9315 9.66424 11.2254 10.4274C10.5171 11.1911 9.96901 12.096 9.58105 13.1445C9.19576 14.1926 9 15.3371 9 16.5786C9 17.7857 9.19843 18.9135 9.59306 19.9606C9.98814 21.0096 10.5434 21.9195 11.261 22.6913C11.9782 23.4618 12.8356 24.0655 13.8317 24.5021C14.8274 24.9383 15.9277 25.1557 17.1311 25.1557H22.9132C23.9645 25.153 23.1957 25.1625 24.4294 25.1557H29.2353C30.4548 25.1557 31.5635 24.9333 32.5597 24.4894C33.554 24.0456 34.4132 23.4423 35.1286 22.6782C35.8444 21.9146 36.4001 21.0096 36.7961 19.9606C37.1907 18.9135 37.3887 17.7857 37.3887 16.5786C37.3923 15.3544 37.1987 14.2184 36.8126 13.1699Z" fill="#FF8126"/>
<path d="M29.341 24.1018C29.6547 24.6367 29.9741 25.1549 30.2718 25.6911C30.3919 25.9144 30.5165 25.9941 30.7856 25.9651C31.8997 25.8555 32.8425 26.2374 33.4938 27.1726C35.136 29.5392 36.7519 31.9248 38.374 34.3044C38.7918 34.915 38.9764 35.6016 38.98 36.3444C38.9764 36.4563 38.9951 36.5713 39 36.6868C38.9123 37.0401 38.8238 37.3979 38.7362 37.7517C38.7015 37.8024 38.6579 37.8486 38.6298 37.9043C37.9482 39.25 36.8613 39.9407 35.3753 39.9828C35.2628 39.9841 35.1506 39.9941 35.0345 40C34.6862 39.9094 34.3373 39.8193 33.9881 39.7296C33.9685 39.7074 33.9543 39.6698 33.9307 39.6617C33.0872 39.283 32.5146 38.6394 32.1048 37.8105C30.9178 35.3928 29.7254 32.9787 28.5108 30.5723C27.9058 29.3743 27.9453 28.2474 28.7012 27.1396C28.744 27.0726 28.7555 26.9254 28.7177 26.8597C28.388 26.2677 28.0472 25.6889 27.7064 25.1055C27.601 25.1476 30.4947 23.2431 29.341 24.1018Z" fill="#FF8126"/>
</svg>
